<svg xmlns="http://www.w3.org/2000/svg" xml:space="preserve" width="16" height="16" data-version="2">
    <path fill="#f97029" d="M5.24 11.9q.49 0 .63-.18.13-.18.13-.61V9.17h-.64v-.22h2.88v.22h-.39v2.82H7.7q-.18-.25-.51-.25-.14 0-.83.18-.7.18-1.19.18-1.63 0-2.52-.88-.9-.88-.9-2.64 0-1.77.94-2.73.93-.96 2.51-.96.61 0 1.23.16.61.15.71.15.1 0 .15-.04.05-.05.11-.16h.11l.08 2.17h-.18q-.49-.97-.98-1.52-.5-.56-1.11-.56-1.53 0-1.53 2.99v.79q0 1.5.38 2.27.37.76 1.07.76" paint-order="stroke"/>
    <rect width="6.49" height="7.21" x="-3.245" y="-3.605" fill="none" rx="0" ry="0" transform="translate(5.495 8.995)"/>
    <path fill="#f97029" d="M11.33 11.9q.49 0 .63-.18.13-.18.13-.61V9.17h-.64v-.22h2.88v.22h-.39v2.82h-.15q-.18-.25-.51-.25-.14 0-.83.18-.7.18-1.19.18-1.63 0-2.52-.88-.9-.88-.9-2.64 0-1.77.94-2.73.93-.96 2.51-.96.61 0 1.23.16.61.15.71.15.1 0 .15-.04.05-.05.11-.16h.11l.08 2.17h-.18q-.49-.97-.98-1.52-.5-.56-1.11-.56-1.53 0-1.53 2.99v.79q0 1.5.38 2.27.37.76 1.07.76" paint-order="stroke"/>
    <rect width="6.49" height="7.21" x="-3.245" y="-3.605" fill="none" rx="0" ry="0" transform="translate(11.585 8.995)"/>
</svg>
